<svg aria-hidden="true" style="position: absolute; width: 0; height: 0; overflow: hidden;" version="1.1" xmlns="http://www.w3.org/2000/svg" xmlns:xlink="http://www.w3.org/1999/xlink">
    <defs>
        <symbol id="icon-arrow-right" viewBox="0 0 195 32">
            <path d="M193.415 17.414c0.78-0.781 0.78-2.047 0-2.829l-12.728-12.728c-0.781-0.781-2.048-0.781-2.829 0-0.78 0.781-0.78 2.047 0 2.828l11.315 11.314-11.315 11.314c-0.78 0.781-0.78 2.047 0 2.828 0.781 0.781 2.048 0.781 2.829 0l12.728-12.728zM0 18h192v-4h-192v4z"></path>
        </symbol>
        <symbol id="icon-arrow-left" viewBox="0 0 195 32">
            <path d="M1.252 14.586c-0.781 0.781-0.781 2.047 0 2.828l12.728 12.728c0.781 0.781 2.047 0.781 2.828 0s0.781-2.047 0-2.828l-11.314-11.314 11.314-11.314c0.781-0.781 0.781-2.047 0-2.828s-2.047-0.781-2.828 0l-12.728 12.728zM194.667 14h-192v4h192v-4z"></path>
        </symbol>
        <symbol id="icon-btn-close" viewBox="0 0 32 32">
            <path fill="none" stroke="#fff" style="stroke: var(--color1, #fff)" stroke-linejoin="round" stroke-linecap="round" stroke-miterlimit="4" stroke-width="1.6" d="M24 8l-16 16"></path>
            <path fill="none" stroke="#fff" style="stroke: var(--color1, #fff)" stroke-linejoin="round" stroke-linecap="round" stroke-miterlimit="4" stroke-width="1.6" d="M8 8l16 16"></path>
        </symbol>
        <symbol id="icon-btn-hamb" viewBox="0 0 42 32">
            <path stroke-linejoin="round" stroke-linecap="round" stroke-miterlimit="4" stroke-width="3.2" d="M2.133 29.333h21.333M2.133 16h37.333M18.133 2.667h21.333"></path>
        </symbol>
        <symbol id="icon-bus" viewBox="0 0 32 32">
            <path d="M9.385 26.667c-0.189 0-0.347-0.064-0.475-0.192s-0.192-0.286-0.192-0.475v-2.528c-0.434-0.188-0.885-0.589-1.351-1.201s-0.7-1.318-0.7-2.117v-12.154c0-1.383 0.749-2.396 2.246-3.037s3.859-0.963 7.087-0.963c3.344 0 5.736 0.308 7.175 0.925s2.159 1.642 2.159 3.075v12.154c0 0.798-0.233 1.504-0.7 2.117s-0.917 1.013-1.351 1.201v2.528c0 0.189-0.064 0.347-0.192 0.475s-0.286 0.192-0.475 0.192h-0.308c-0.189 0-0.347-0.064-0.475-0.192s-0.192-0.286-0.192-0.475v-2h-11.282v2c0 0.189-0.064 0.347-0.192 0.475s-0.286 0.192-0.475 0.192h-0.308zM8 14.667h16v-5.949h-16v5.949zM11.339 20.821c0.415 0 0.765-0.145 1.052-0.436s0.429-0.643 0.429-1.058-0.145-0.765-0.435-1.052c-0.29-0.286-0.643-0.429-1.058-0.429s-0.765 0.145-1.052 0.436c-0.286 0.29-0.429 0.643-0.429 1.058s0.145 0.765 0.435 1.052c0.29 0.286 0.643 0.429 1.058 0.429zM20.673 20.821c0.415 0 0.765-0.145 1.052-0.436s0.429-0.643 0.429-1.058-0.145-0.765-0.436-1.052c-0.29-0.286-0.643-0.429-1.058-0.429s-0.765 0.145-1.052 0.436c-0.286 0.29-0.429 0.643-0.429 1.058s0.145 0.765 0.436 1.052c0.29 0.286 0.643 0.429 1.058 0.429zM8.138 7.385h15.754c-0.231-0.685-0.943-1.199-2.137-1.54s-3.107-0.512-5.74-0.512c-2.617 0-4.523 0.173-5.717 0.519s-1.914 0.857-2.16 1.532zM10.667 22.667h10.667c0.733 0 1.361-0.261 1.883-0.783s0.783-1.15 0.783-1.883v-4h-16v4c0 0.733 0.261 1.361 0.783 1.883s1.15 0.783 1.883 0.783z"></path>
        </symbol>
        <symbol id="icon-face" viewBox="0 0 32 32">
            <path d="M12 21.667c-0.467 0-0.861-0.161-1.183-0.483s-0.483-0.717-0.483-1.183 0.161-0.861 0.483-1.183c0.322-0.322 0.717-0.483 1.183-0.483s0.861 0.161 1.183 0.483c0.322 0.322 0.483 0.717 0.483 1.183s-0.161 0.861-0.483 1.183c-0.322 0.322-0.717 0.483-1.183 0.483zM20 21.667c-0.467 0-0.861-0.161-1.183-0.483s-0.483-0.717-0.483-1.183 0.161-0.861 0.483-1.183c0.322-0.322 0.717-0.483 1.183-0.483s0.861 0.161 1.183 0.483c0.322 0.322 0.483 0.717 0.483 1.183s-0.161 0.861-0.483 1.183c-0.322 0.322-0.717 0.483-1.183 0.483zM16 29.333c2.978 0 5.5-1.033 7.567-3.1s3.1-4.589 3.1-7.567c0-0.533-0.033-1.050-0.1-1.55s-0.189-0.983-0.367-1.45c-0.467 0.111-0.933 0.195-1.4 0.25s-0.955 0.083-1.467 0.083c-2.022 0-3.933-0.433-5.733-1.3s-3.333-2.078-4.6-3.633c-0.711 1.733-1.728 3.239-3.050 4.517s-2.861 2.239-4.617 2.883v0.2c0 2.978 1.033 5.5 3.1 7.567s4.589 3.1 7.567 3.1zM12.944 8.423c1.087 2.171 2.623 3.754 4.608 4.75s3.912 1.494 5.782 1.494c0.414 0 0.821-0.021 1.221-0.063s0.798-0.111 1.195-0.206c-0.848-1.983-2.161-3.545-3.941-4.686s-3.715-1.712-5.808-1.712c-0.585 0-1.12 0.034-1.605 0.101s-0.969 0.175-1.451 0.322zM5.516 16.941c1.373-0.61 2.763-1.61 4.172-3s2.23-3.137 2.464-5.241c-1.783 0.679-3.259 1.747-4.428 3.205s-1.905 3.137-2.208 5.036zM4.567 15.279c0.485-1.776 1.337-3.341 2.555-4.696s2.689-2.36 4.414-3.017c-0.48-0.603-1.076-1.092-1.787-1.467s-1.496-0.562-2.355-0.562c-1.481 0-2.733 0.512-3.756 1.537s-1.535 2.279-1.535 3.763c0 0.934 0.226 1.788 0.677 2.561s1.047 1.4 1.787 1.88zM16.005 30.667c-1.659 0-3.22-0.315-4.68-0.945s-2.732-1.485-3.812-2.565c-1.081-1.080-1.936-2.35-2.566-3.81s-0.946-3.020-0.946-4.68c0-0.35 0.015-0.698 0.044-1.042s0.081-0.677 0.156-0.999c-1.041-0.561-1.873-1.354-2.496-2.38s-0.935-2.162-0.935-3.407c0-1.844 0.644-3.411 1.933-4.7s2.856-1.933 4.7-1.933c1.127 0 2.163 0.262 3.109 0.786s1.719 1.226 2.319 2.106c0.509-0.144 1.030-0.251 1.561-0.323s1.067-0.108 1.608-0.108c1.66 0 3.22 0.315 4.68 0.945s2.73 1.484 3.81 2.564 1.935 2.349 2.565 3.809c0.63 1.459 0.945 3.019 0.945 4.678s-0.315 3.219-0.945 4.68c-0.63 1.461-1.484 2.732-2.564 3.812s-2.349 1.936-3.809 2.567c-1.459 0.63-3.019 0.945-4.678 0.945z"></path>
        </symbol>
        <symbol id="icon-facebook" viewBox="0 0 32 32">
            <path d="M16 3c-2.571 0-5.085 0.762-7.222 2.191s-3.804 3.459-4.788 5.834c-0.984 2.375-1.241 4.989-0.74 7.511s1.74 4.838 3.558 6.656c1.818 1.818 4.134 3.056 6.656 3.558s5.136 0.244 7.511-0.74c2.375-0.984 4.406-2.65 5.834-4.788s2.191-4.651 2.191-7.222c-0.004-3.447-1.374-6.751-3.812-9.188s-5.742-3.808-9.188-3.812zM17 26.954v-7.954h3c0.265 0 0.52-0.105 0.707-0.293s0.293-0.442 0.293-0.707-0.105-0.52-0.293-0.707c-0.187-0.188-0.442-0.293-0.707-0.293h-3v-3c0-0.53 0.211-1.039 0.586-1.414s0.884-0.586 1.414-0.586h2c0.265 0 0.52-0.105 0.707-0.293s0.293-0.442 0.293-0.707-0.105-0.52-0.293-0.707c-0.187-0.188-0.442-0.293-0.707-0.293h-2c-1.061 0-2.078 0.421-2.828 1.172s-1.172 1.768-1.172 2.828v3h-3c-0.265 0-0.52 0.105-0.707 0.293s-0.293 0.442-0.293 0.707 0.105 0.52 0.293 0.707c0.188 0.188 0.442 0.293 0.707 0.293h3v7.954c-2.819-0.257-5.43-1.591-7.291-3.725s-2.827-4.902-2.698-7.73c0.129-2.828 1.343-5.497 3.389-7.453s4.768-3.047 7.599-3.047c2.831 0 5.553 1.091 7.599 3.047s3.261 4.625 3.389 7.453c0.129 2.828-0.838 5.596-2.698 7.73s-4.472 3.468-7.291 3.725z"></path>
        </symbol>
        <symbol id="icon-id-card" viewBox="0 0 32 32">
            <path d="M28 5.25h-24c-1.518 0.002-2.748 1.232-2.75 2.75v16c0.002 1.518 1.232 2.748 2.75 2.75h24c1.518-0.002 2.748-1.232 2.75-2.75v-16c-0.002-1.518-1.232-2.748-2.75-2.75zM4 6.75h24c0.69 0.001 1.249 0.56 1.25 1.25v1.25h-26.5v-1.25c0.001-0.69 0.56-1.249 1.25-1.25zM28 25.25h-24c-0.69-0.001-1.249-0.56-1.25-1.25v-13.25h26.5v13.25c-0.001 0.69-0.56 1.249-1.25 1.25zM9.645 17.628c1.455 0 2.635-1.18 2.635-2.635s-1.18-2.635-2.635-2.635-2.635 1.18-2.635 2.635c0.001 1.455 1.18 2.633 2.635 2.635zM9.645 13.858c0.627 0 1.135 0.508 1.135 1.135s-0.508 1.135-1.135 1.135-1.135-0.508-1.135-1.135c0.001-0.627 0.508-1.134 1.135-1.135zM9.645 18.811c-2.15 0.009-3.947 1.51-4.41 3.52l-0.006 0.031c-0.011 0.048-0.017 0.103-0.017 0.16 0 0.414 0.336 0.75 0.75 0.75 0.357 0 0.656-0.25 0.731-0.585l0.001-0.005c0.309-1.366 1.512-2.371 2.951-2.371s2.642 1.005 2.947 2.351l0.004 0.020c0.077 0.338 0.375 0.587 0.732 0.587 0.414 0 0.75-0.336 0.75-0.75 0-0.056-0.006-0.11-0.018-0.163l0.001 0.005c-0.469-2.041-2.265-3.541-4.414-3.551h-0.001l-0.001 0.001zM26 13.25h-8c-0.414 0-0.75 0.336-0.75 0.75s0.336 0.75 0.75 0.75h8c0.414 0 0.75-0.336 0.75-0.75s-0.336-0.75-0.75-0.75zM26 17.25h-8c-0.414 0-0.75 0.336-0.75 0.75s0.336 0.75 0.75 0.75h8c0.414 0 0.75-0.336 0.75-0.75s-0.336-0.75-0.75-0.75zM26 21.25h-8c-0.414 0-0.75 0.336-0.75 0.75s0.336 0.75 0.75 0.75h8c0.414 0 0.75-0.336 0.75-0.75s-0.336-0.75-0.75-0.75z"></path>
        </symbol>
        <symbol id="icon-instagram" viewBox="0 0 32 32">
            <path d="M16 10c-1.187 0-2.347 0.352-3.333 1.011s-1.756 1.596-2.21 2.693c-0.454 1.096-0.573 2.303-0.341 3.467s0.803 2.233 1.642 3.072c0.839 0.839 1.908 1.411 3.072 1.642s2.37 0.113 3.467-0.341c1.096-0.454 2.033-1.223 2.693-2.21s1.011-2.147 1.011-3.333c-0.002-1.591-0.634-3.116-1.759-4.241s-2.65-1.758-4.241-1.759zM16 20c-0.791 0-1.565-0.235-2.222-0.674s-1.171-1.064-1.473-1.795c-0.303-0.731-0.382-1.535-0.228-2.311s0.535-1.489 1.095-2.048c0.559-0.559 1.272-0.94 2.048-1.095s1.58-0.075 2.311 0.228c0.731 0.303 1.356 0.815 1.795 1.473s0.674 1.431 0.674 2.222c0 1.061-0.421 2.078-1.172 2.828s-1.768 1.172-2.828 1.172zM22 3h-12c-1.856 0.002-3.635 0.74-4.948 2.052s-2.050 3.092-2.052 4.948v12c0.002 1.856 0.74 3.635 2.052 4.948s3.092 2.050 4.948 2.052h12c1.856-0.002 3.635-0.74 4.948-2.052s2.050-3.092 2.052-4.948v-12c-0.002-1.856-0.74-3.635-2.052-4.948s-3.092-2.050-4.948-2.052zM27 22c0 1.326-0.527 2.598-1.465 3.535s-2.209 1.465-3.535 1.465h-12c-1.326 0-2.598-0.527-3.536-1.465s-1.464-2.209-1.464-3.535v-12c0-1.326 0.527-2.598 1.464-3.536s2.209-1.464 3.536-1.464h12c1.326 0 2.598 0.527 3.535 1.464s1.465 2.209 1.465 3.536v12zM24 9.5c0 0.297-0.088 0.587-0.253 0.833s-0.399 0.439-0.673 0.552c-0.274 0.114-0.576 0.143-0.867 0.085s-0.558-0.201-0.768-0.411-0.353-0.477-0.411-0.768c-0.058-0.291-0.028-0.593 0.085-0.867s0.306-0.508 0.553-0.673 0.537-0.253 0.833-0.253c0.398 0 0.779 0.158 1.061 0.439s0.439 0.663 0.439 1.061z"></path>
        </symbol>
        <symbol id="icon-star" viewBox="0 0 35 32">
            <path d="M17.455 0l4.617 11.1 11.984 0.961-9.13 7.821 2.789 11.694-10.259-6.266-10.26 6.266 2.789-11.694-9.13-7.821 11.983-0.961 4.617-11.1z"></path>
        </symbol>
        <symbol id="icon-telegram" viewBox="0 0 32 32">
            <path d="M29.609 3.274c-0.155-0.134-0.343-0.223-0.545-0.257s-0.409-0.013-0.6 0.061l-25.333 9.914c-0.359 0.14-0.663 0.392-0.866 0.719s-0.294 0.712-0.26 1.095c0.034 0.384 0.192 0.746 0.45 1.032s0.602 0.481 0.98 0.555l6.564 1.289v7.319c-0.001 0.399 0.117 0.789 0.34 1.119s0.54 0.587 0.91 0.735c0.369 0.151 0.776 0.187 1.166 0.104s0.747-0.282 1.023-0.57l3.165-3.283 5.021 4.395c0.362 0.321 0.829 0.499 1.314 0.5 0.212-0 0.423-0.033 0.625-0.099 0.33-0.105 0.627-0.294 0.861-0.549s0.397-0.567 0.473-0.905l5.074-22.073c0.045-0.199 0.036-0.407-0.028-0.601s-0.179-0.367-0.333-0.501zM21.967 7.774l-11.199 8.020-6.2-1.216 17.399-6.804zM11.999 25v-5.935l3.099 2.717-3.099 3.217zM22.941 26l-10.335-9.062 14.875-10.661-4.54 19.724z"></path>
        </symbol>
        <symbol id="icon-ticket" viewBox="0 0 32 32">
            <path d="M30 13.75c0.414 0 0.75-0.336 0.75-0.75v-5c0-0.414-0.336-0.75-0.75-0.75h-28c-0.414 0-0.75 0.336-0.75 0.75v5c0 0.414 0.336 0.75 0.75 0.75 1.243 0 2.25 1.007 2.25 2.25s-1.007 2.25-2.25 2.25c-0.414 0-0.75 0.336-0.75 0.75v5c0 0.414 0.336 0.75 0.75 0.75h28c0.414 0 0.75-0.336 0.75-0.75v-5c0-0.414-0.336-0.75-0.75-0.75-1.243 0-2.25-1.007-2.25-2.25s1.007-2.25 2.25-2.25zM29.25 19.674v3.576h-26.5v-3.576c1.724-0.361 3-1.869 3-3.674s-1.276-3.313-2.975-3.67l-0.024-0.004v-3.576h26.5v3.576c-1.724 0.361-3 1.869-3 3.674s1.276 3.313 2.975 3.67l0.024 0.004z"></path>
        </symbol>
        <symbol id="icon-tree" viewBox="0 0 39 32">
            <path d="M11.931 21.276c1.94-1.494 5.763-1.9 7.734-0.297 0.086 0.075 0.066 0.191-0.009 0.278-0.847 0.729-1.792 1.221-2.812 1.461 1.273 0.024 2.495-0.12 3.645-0.756 0.046-0.032 0.093 0.036 0.048 0.068-1.419 1.027-3.277 1.040-5.016 0.834-0.039-0.007-0.1 0.002-0.162 0.012-1.218 0.005-2.798-0.312-3.599-1.31-0.080-0.114 0.041-0.232 0.157-0.212-0.016-0.023-0.009-0.061 0.014-0.077zM16.322 22.506c0.731-0.071 1.441-0.365 2.081-0.712 0.617-0.33 1.111-0.643 0.294-0.986-1.923-0.856-4.915-0.524-6.671 0.604 0 0 0 0-0.023 0.016 0.942 1.103 2.996 1.224 4.318 1.078z"></path>
            <path d="M15.088 22.149c0.23-0.059 0.453-0.080 0.683-0.139 0.207-0.043 0.421-0.126 0.628-0.169 0.061-0.009 0.102 0.098 0.018 0.123-0.405 0.148-0.909 0.399-1.334 0.324-0.055-0.030-0.057-0.13 0.005-0.139z"></path>
            <path d="M15.492 21.562c0.107-0.041 0.157 0.127 0.050 0.168-0.46 0.119-0.92 0.237-1.389 0.295-0.084 0.025-0.118-0.12-0.034-0.146 0.46-0.119 0.913-0.199 1.373-0.317z"></path>
            <path d="M14.155 21.447c0.107-0.041 0.157 0.127 0.050 0.168-0.398 0.11-0.742 0.249-1.125 0.381-0.084 0.025-0.164-0.089-0.073-0.152 0.319-0.223 0.749-0.287 1.148-0.397z"></path>
            <path d="M12.999 21.443c0.107-0.041 0.157 0.127 0.050 0.168-0.153 0.073-0.282 0.13-0.444 0.141-0.1 0.002-0.102-0.098-0.034-0.146 0.168-0.050 0.314-0.084 0.428-0.164z"></path>
            <path d="M16.258 18.246c1.94-1.494 5.763-1.9 7.734-0.297 0.086 0.075 0.066 0.191-0.009 0.278-0.847 0.729-1.792 1.221-2.812 1.461 1.25 0.040 2.472-0.104 3.645-0.756 0.046-0.032 0.093 0.036 0.048 0.068-1.419 1.027-3.277 1.040-5.016 0.834-0.062 0.009-0.1 0.002-0.162 0.012-1.218 0.005-2.798-0.312-3.599-1.31-0.080-0.114 0.041-0.232 0.157-0.212-0.016-0.023-0.032-0.046 0.014-0.077zM20.626 19.492c0.731-0.071 1.441-0.365 2.081-0.712 0.617-0.33 1.111-0.643 0.294-0.986-1.923-0.857-4.915-0.524-6.671 0.603 0 0 0 0-0.023 0.016 0.942 1.103 2.995 1.224 4.318 1.078z"></path>
            <path d="M19.415 19.12c0.23-0.059 0.453-0.080 0.683-0.139 0.207-0.043 0.421-0.125 0.628-0.169 0.062-0.009 0.102 0.098 0.018 0.123-0.405 0.148-0.909 0.399-1.334 0.324-0.055-0.030-0.080-0.114 0.005-0.139z"></path>
            <path d="M19.796 18.548c0.107-0.041 0.157 0.127 0.050 0.168-0.46 0.119-0.92 0.237-1.389 0.295-0.084 0.025-0.118-0.121-0.034-0.146 0.46-0.119 0.913-0.199 1.373-0.317z"></path>
            <path d="M18.459 18.433c0.107-0.041 0.157 0.127 0.050 0.168-0.398 0.11-0.742 0.249-1.125 0.381-0.084 0.025-0.164-0.089-0.073-0.152 0.319-0.223 0.772-0.303 1.148-0.397z"></path>
            <path d="M17.326 18.413c0.107-0.041 0.157 0.127 0.050 0.168-0.152 0.073-0.282 0.13-0.444 0.141-0.1 0.002-0.102-0.098-0.034-0.146 0.146-0.034 0.314-0.084 0.428-0.164z"></path>
            <path d="M20.54 15.248c1.781-1.383 5.296-1.743 7.11-0.267 0.086 0.075 0.066 0.191-0.002 0.239-0.779 0.681-1.633 1.109-2.569 1.324 1.15 0.042 2.272-0.1 3.354-0.687 0.046-0.032 0.093 0.036 0.048 0.068-1.328 0.964-3.024 0.965-4.647 0.779-0.039-0.007-0.1 0.002-0.139-0.004-1.118 0.003-2.582-0.294-3.319-1.201-0.080-0.114 0.018-0.216 0.134-0.196 0 0 0.007-0.039 0.030-0.055zM24.589 16.378c0.669-0.062 1.334-0.324 1.913-0.661 0.572-0.299 1.020-0.579 0.28-0.908-1.775-0.791-4.521-0.495-6.125 0.56 0 0 0 0-0.023 0.016 0.856 1.028 2.731 1.138 3.954 0.994z"></path>
            <path d="M23.433 16.035c0.207-0.043 0.43-0.064 0.622-0.13s0.383-0.132 0.567-0.16c0.061-0.009 0.086 0.075 0.018 0.123-0.36 0.116-0.824 0.374-1.227 0.283-0.023 0.016-0.041-0.107 0.020-0.116z"></path>
            <path d="M23.822 15.525c0.084-0.025 0.157 0.127 0.057 0.13-0.437 0.103-0.858 0.228-1.305 0.27-0.061 0.009-0.102-0.098-0.018-0.123 0.398-0.11 0.829-0.174 1.266-0.276z"></path>
            <path d="M22.586 15.408c0.084-0.025 0.157 0.127 0.050 0.168-0.337 0.1-0.681 0.239-1.041 0.356-0.084 0.025-0.125-0.082-0.057-0.13 0.28-0.23 0.695-0.317 1.047-0.395z"></path>
            <path d="M21.53 15.402c0.107-0.041 0.141 0.105 0.050 0.168-0.13 0.057-0.26 0.114-0.405 0.148-0.1 0.002-0.102-0.098-0.034-0.146 0.152-0.073 0.26-0.114 0.389-0.171z"></path>
            <path d="M24.502 12.473c1.781-1.383 5.296-1.743 7.11-0.267 0.086 0.075 0.066 0.191-0.002 0.239-0.756 0.665-1.633 1.109-2.569 1.324 1.15 0.042 2.288-0.077 3.354-0.687 0.045-0.032 0.093 0.036 0.048 0.068-1.328 0.964-3.024 0.965-4.624 0.763-0.062 0.009-0.1 0.002-0.162 0.012-1.118 0.003-2.582-0.294-3.319-1.201-0.080-0.114 0.018-0.216 0.134-0.196 0.023-0.016 0.007-0.039 0.030-0.055zM28.552 13.603c0.669-0.062 1.334-0.324 1.913-0.661 0.572-0.299 1.020-0.579 0.28-0.908-1.775-0.791-4.521-0.495-6.125 0.56 0 0 0 0-0.023 0.016 0.856 1.028 2.731 1.138 3.954 0.994z"></path>
            <path d="M27.395 13.261c0.207-0.043 0.43-0.064 0.622-0.13s0.383-0.132 0.567-0.16c0.061-0.009 0.086 0.075 0.018 0.123-0.36 0.116-0.824 0.374-1.227 0.283 0 0-0.041-0.107 0.020-0.116z"></path>
            <path d="M27.785 12.751c0.084-0.025 0.157 0.127 0.057 0.13-0.437 0.103-0.858 0.228-1.305 0.27-0.061 0.009-0.102-0.098-0.018-0.123 0.398-0.11 0.852-0.189 1.266-0.276z"></path>
            <path d="M26.549 12.633c0.084-0.025 0.157 0.127 0.050 0.168-0.337 0.1-0.681 0.239-1.041 0.356-0.084 0.025-0.125-0.082-0.057-0.13 0.28-0.23 0.695-0.317 1.047-0.395z"></path>
            <path d="M25.493 12.627c0.107-0.041 0.141 0.105 0.050 0.168-0.13 0.057-0.26 0.114-0.405 0.148-0.1 0.002-0.102-0.098-0.034-0.146 0.153-0.073 0.26-0.114 0.389-0.171z"></path>
            <path d="M28.465 9.699c1.524-1.169 4.493-1.485 6.047-0.234 0.071 0.052 0.050 0.168-0.018 0.216-0.658 0.563-1.405 0.95-2.195 1.13 0.972 0.031 1.949-0.077 2.855-0.576 0.023-0.016 0.077 0.014 0.032 0.046-1.123 0.82-2.557 0.807-3.925 0.647-0.039-0.007-0.1 0.002-0.139-0.004-0.956-0.008-2.172-0.242-2.814-1.013-0.064-0.091 0.012-0.178 0.112-0.18 0.039 0.007 0.023-0.016 0.046-0.032zM31.902 10.681c0.569-0.060 1.127-0.281 1.614-0.554s0.884-0.483 0.237-0.776c-1.495-0.682-3.857-0.418-5.209 0.461 0.721 0.885 2.303 0.963 3.358 0.869z"></path>
            <path d="M30.939 10.373c0.184-0.027 0.369-0.055 0.537-0.105s0.337-0.1 0.483-0.135c0.061-0.009 0.086 0.075 0.025 0.084-0.298 0.107-0.695 0.317-1.043 0.256-0.039-0.007-0.064-0.091-0.002-0.1z"></path>
            <path d="M31.238 9.926c0.084-0.025 0.141 0.105 0.057 0.13-0.376 0.094-0.713 0.194-1.097 0.226-0.062 0.009-0.102-0.098-0.018-0.123 0.353-0.078 0.706-0.155 1.059-0.233z"></path>
            <path d="M30.195 9.843c0.084-0.025 0.141 0.105 0.057 0.13-0.314 0.084-0.574 0.198-0.872 0.306-0.061 0.009-0.109-0.059-0.041-0.107 0.235-0.198 0.565-0.26 0.856-0.328z"></path>
            <path d="M29.3 9.825c0.068-0.048 0.125 0.082 0.057 0.13-0.107 0.041-0.221 0.121-0.36 0.116-0.062 0.009-0.087-0.075-0.018-0.123 0.107-0.041 0.23-0.059 0.321-0.123z"></path>
            <path d="M9.943 22.702c-0.021 0.116-0.173 0.189-0.253 0.075-0.664-1.094-0.422-2.687-0.001-3.83 0.030-0.055 0.036-0.093 0.066-0.148 0.402-1.705 1.049-3.446 2.5-4.428 0.046-0.032 0.093 0.036 0.048 0.068-1.014 0.879-1.545 1.963-1.957 3.167 0.574-0.877 1.344-1.619 2.335-2.143 0.091-0.064 0.223-0.021 0.264 0.086 0.848 2.423-0.857 5.854-2.924 7.166-0.023 0.016-0.061 0.009-0.077-0.014zM9.925 22.579c1.683-1.28 2.996-3.962 2.849-6.062-0.082-0.892-0.505-0.528-1.027-0.061-0.544 0.483-1.064 1.050-1.38 1.712-0.59 1.193-1.194 3.141-0.441 4.41z"></path>
            <path d="M10.279 19.45c0.134-0.196 0.23-0.398 0.364-0.594 0.112-0.18 0.262-0.353 0.374-0.533 0.030-0.055-0.057-0.13-0.109-0.059-0.278 0.33-0.686 0.717-0.761 1.143 0.009 0.061 0.102 0.098 0.132 0.043z"></path>
            <path d="M10.953 19.249c0.075-0.086-0.066-0.191-0.141-0.105-0.269 0.392-0.538 0.783-0.752 1.204-0.052 0.071 0.073 0.152 0.125 0.082 0.285-0.369 0.515-0.767 0.768-1.182z"></path>
            <path d="M10.62 20.567c0.075-0.087-0.066-0.191-0.141-0.105-0.239 0.337-0.488 0.613-0.743 0.927-0.052 0.071 0.027 0.184 0.118 0.12 0.303-0.246 0.549-0.622 0.765-0.943z"></path>
            <path d="M10.212 21.632c0.075-0.087-0.066-0.191-0.141-0.105-0.121 0.118-0.219 0.221-0.285 0.369-0.037 0.093 0.057 0.13 0.125 0.082 0.121-0.118 0.203-0.244 0.301-0.346z"></path>
            <path d="M14.247 19.688c-0.021 0.116-0.173 0.189-0.253 0.075-0.664-1.094-0.422-2.687-0.001-3.83 0.030-0.055 0.037-0.093 0.066-0.148 0.402-1.705 1.049-3.446 2.5-4.428 0.046-0.032 0.093 0.036 0.048 0.068-1.013 0.879-1.544 1.963-1.957 3.167 0.574-0.877 1.344-1.619 2.335-2.143 0.091-0.064 0.223-0.021 0.264 0.086 0.855 2.384-0.834 5.838-2.902 7.15-0.046 0.032-0.061 0.009-0.1 0.002zM14.229 19.565c1.683-1.28 2.996-3.962 2.849-6.062-0.082-0.892-0.505-0.528-1.027-0.061-0.544 0.483-1.064 1.050-1.38 1.712-0.59 1.193-1.194 3.141-0.441 4.411z"></path>
            <path d="M14.606 16.42c0.134-0.196 0.23-0.398 0.365-0.594 0.112-0.18 0.262-0.353 0.374-0.533 0.030-0.055-0.057-0.13-0.109-0.059-0.278 0.33-0.686 0.717-0.761 1.143 0.009 0.061 0.080 0.114 0.132 0.043z"></path>
            <path d="M15.257 16.235c0.075-0.087-0.066-0.191-0.141-0.105-0.269 0.392-0.538 0.783-0.752 1.204-0.052 0.071 0.073 0.152 0.125 0.082 0.285-0.369 0.538-0.783 0.768-1.182z"></path>
            <path d="M14.924 17.553c0.075-0.087-0.066-0.191-0.141-0.105-0.239 0.337-0.488 0.613-0.743 0.927-0.052 0.071 0.027 0.184 0.118 0.12 0.303-0.246 0.549-0.622 0.765-0.943z"></path>
            <path d="M14.539 18.602c0.075-0.087-0.066-0.191-0.141-0.105-0.121 0.118-0.219 0.221-0.285 0.369-0.036 0.093 0.057 0.13 0.125 0.082 0.098-0.102 0.203-0.244 0.301-0.346z"></path>
            <path d="M18.551 16.674c-0.021 0.116-0.15 0.173-0.23 0.059-0.601-1.003-0.363-2.457 0.006-3.53 0.030-0.055 0.037-0.093 0.066-0.148 0.374-1.55 0.962-3.182 2.299-4.084 0.046-0.032 0.093 0.036 0.048 0.068-0.922 0.815-1.417 1.806-1.793 2.916 0.522-0.806 1.239-1.478 2.146-1.977 0.068-0.048 0.184-0.027 0.225 0.079 0.759 2.248-0.774 5.389-2.69 6.629-0.023 0.016-0.039-0.007-0.077-0.014zM18.533 16.551c1.546-1.184 2.763-3.664 2.605-5.586-0.056-0.808-0.473-0.482-0.949-0.047-0.499 0.451-0.966 0.947-1.276 1.571-0.515 1.106-1.053 2.907-0.38 4.062z"></path>
            <path d="M18.862 13.677c0.112-0.18 0.207-0.383 0.335-0.54s0.255-0.314 0.344-0.478c0.030-0.055-0.041-0.107-0.109-0.059-0.232 0.298-0.633 0.647-0.686 1.056-0.007 0.039 0.087 0.075 0.116 0.020z"></path>
            <path d="M19.491 13.508c0.052-0.071-0.066-0.191-0.102-0.098-0.246 0.376-0.508 0.729-0.699 1.134-0.030 0.055 0.057 0.13 0.109 0.059 0.239-0.337 0.447-0.719 0.693-1.095z"></path>
            <path d="M19.178 14.71c0.052-0.071-0.066-0.191-0.141-0.105-0.21 0.282-0.458 0.558-0.69 0.856-0.052 0.071 0.034 0.146 0.102 0.098 0.312-0.184 0.519-0.567 0.729-0.849z"></path>
            <path d="M18.823 15.704c0.075-0.087-0.050-0.168-0.141-0.105-0.098 0.102-0.196 0.205-0.278 0.33-0.036 0.093 0.057 0.13 0.125 0.082 0.121-0.118 0.18-0.228 0.294-0.307z"></path>
            <path d="M22.514 13.899c-0.020 0.116-0.15 0.173-0.23 0.059-0.601-1.003-0.363-2.457 0.006-3.53 0.030-0.055 0.037-0.093 0.066-0.148 0.374-1.55 0.962-3.182 2.299-4.084 0.046-0.032 0.093 0.036 0.048 0.068-0.922 0.815-1.417 1.806-1.793 2.916 0.522-0.806 1.239-1.478 2.146-1.977 0.068-0.048 0.184-0.027 0.225 0.079 0.766 2.209-0.774 5.389-2.683 6.59-0.030 0.055-0.046 0.032-0.084 0.025zM22.496 13.776c1.546-1.185 2.763-3.664 2.605-5.586-0.056-0.808-0.473-0.482-0.949-0.047-0.499 0.451-0.966 0.947-1.276 1.571-0.515 1.106-1.053 2.907-0.38 4.062z"></path>
            <path d="M22.825 10.902c0.112-0.18 0.207-0.383 0.335-0.54s0.255-0.314 0.344-0.478c0.030-0.055-0.041-0.107-0.109-0.059-0.232 0.298-0.633 0.647-0.686 1.056 0.016 0.023 0.087 0.075 0.116 0.020z"></path>
            <path d="M23.454 10.733c0.052-0.071-0.066-0.191-0.102-0.098-0.246 0.376-0.508 0.729-0.699 1.134-0.030 0.055 0.057 0.13 0.109 0.059 0.262-0.353 0.469-0.735 0.693-1.095z"></path>
            <path d="M23.141 11.935c0.052-0.071-0.066-0.191-0.141-0.105-0.21 0.282-0.458 0.558-0.69 0.856-0.052 0.071 0.034 0.146 0.102 0.098 0.312-0.185 0.519-0.567 0.729-0.849z"></path>
            <path d="M22.785 12.93c0.075-0.087-0.050-0.168-0.141-0.105-0.098 0.102-0.196 0.205-0.278 0.33-0.036 0.093 0.057 0.13 0.125 0.082 0.121-0.118 0.18-0.228 0.294-0.307z"></path>
            <path d="M26.5 11.109c-0.014 0.077-0.143 0.134-0.207 0.043-0.528-0.851-0.309-2.089 0.011-2.99 0.007-0.039 0.036-0.093 0.043-0.132 0.317-1.341 0.819-2.709 1.95-3.467 0.046-0.032 0.055 0.030 0.032 0.045-0.779 0.681-1.214 1.562-1.517 2.486 0.44-0.681 1.059-1.25 1.813-1.676 0.068-0.048 0.162-0.011 0.209 0.057 0.643 1.888-0.653 4.593-2.288 5.602-0.014 0.077-0.030 0.055-0.046 0.032zM26.475 11.024c1.312-0.986 2.344-3.099 2.238-4.753-0.054-0.708-0.387-0.407-0.811-0.043-0.446 0.38-0.822 0.813-1.073 1.327-0.488 0.952-0.939 2.488-0.354 3.468z"></path>
            <path d="M26.767 8.582c0.089-0.164 0.178-0.328 0.282-0.469s0.21-0.282 0.292-0.408c0.030-0.055-0.041-0.107-0.071-0.052-0.203 0.244-0.535 0.544-0.597 0.893-0.007 0.039 0.064 0.091 0.093 0.036z"></path>
            <path d="M27.273 8.432c0.052-0.071-0.050-0.168-0.102-0.098-0.216 0.321-0.426 0.603-0.588 0.954-0.030 0.055 0.041 0.107 0.109 0.059 0.21-0.282 0.387-0.61 0.581-0.915z"></path>
            <path d="M27.010 9.463c0.052-0.071-0.050-0.168-0.102-0.098-0.187 0.266-0.383 0.471-0.585 0.715-0.030 0.055 0.018 0.123 0.086 0.075 0.266-0.153 0.437-0.442 0.601-0.692z"></path>
            <path d="M26.705 10.287c0.068-0.048-0.034-0.146-0.102-0.098-0.075 0.087-0.189 0.166-0.232 0.298-0.030 0.055 0.041 0.107 0.109 0.059 0.075-0.087 0.15-0.173 0.226-0.26z"></path>
            <path d="M34.828 4.633c0.228-0.159 0.462-0.358 0.69-0.517 0.091-0.064 0.187 0.073 0.096 0.136-0.212 0.182-0.43 0.403-0.674 0.54-0.199 1.122-0.832 2.108-1.766 2.762-0.615 0.431-1.521 0.93-2.325 0.848-0.023 0.016-0.046 0.032-0.068 0.048-0.184 0.027-0.369 0.055-0.553 0.082-0.084 0.025-0.164-0.089-0.166-0.189 0.431-2.098 2.561-4.098 4.767-3.711zM30.674 7.474c-0.185 0.367-0.342 0.578-0.101 0.68 0.854 0.25 1.78-0.365 2.48-0.821 0.319-0.223 2.082-2.407 1.517-2.486-1.106-0.174-2.2 0.591-2.947 1.318-0.43 0.403-0.729 0.849-0.95 1.309z"></path>
            <path d="M32.335 6.209c-0.048 0.271-0.212 0.521-0.369 0.733-0.030 0.055-0.139-0.004-0.109-0.059 0.102-0.241 0.244-0.476 0.346-0.717 0.030-0.055 0.162-0.011 0.132 0.043z"></path>
            <path d="M31.57 6.813c-0.034 0.193-0.123 0.357-0.251 0.514-0.052 0.071-0.139-0.004-0.087-0.075 0.105-0.141 0.178-0.328 0.244-0.476 0.007-0.039 0.123-0.018 0.093 0.036z"></path>
            <path d="M30.943 7.76c-0.037 0.093-0.050 0.171-0.064 0.248-0.020 0.116-0.175 0.089-0.155-0.027s0.034-0.193 0.109-0.28c0.037-0.093 0.146-0.034 0.109 0.059z"></path>
            <path d="M5.685 24.328c0.075-0.087 0.2-0.005 0.164 0.089-0.155 0.312-0.301 0.685-0.495 0.99 0.205-0.143 0.433-0.303 0.654-0.424 1.002-0.702 1.995-1.465 3.093-2.030 0.068-0.048 0.148 0.066 0.096 0.136-0.665 0.601-1.394 1.112-2.145 1.638 0.667-0.162 1.362-0.14 1.947 0.162 0.039 0.007 0.009 0.061-0.030 0.055-1.248-0.279-2.186 0.175-3.215 0.692-0.827 0.613-1.653 1.226-2.514 1.693-0.198 0.105-0.357-0.123-0.191-0.273 0.424-0.364 0.886-0.722 1.341-1.041 0.189-0.166 0.378-0.332 0.551-0.522 0.339-0.339 0.46-0.797 0.745-1.166z"></path>
        </symbol>
    </defs>
</svg>